<svg xmlns="http://www.w3.org/2000/svg" viewBox="0 0 600 120" preserveAspectRatio="none"><path fill="#fff" d="M0,6L14,4.4L27.9,4.5L41.9,5.5L55.9,5.1L69.9,4.3L83.8,6.2L97.8,5.8L111.8,5.9L125.7,3.4L139.7,4.3L153.7,5.8L167.7,5L181.6,5L195.6,6L209.6,3.4L223.5,3.5L237.5,6.2L251.5,5.4L265.4,3.3L279.4,6.2L293.4,4.7L307.4,4L321.3,5.2L335.3,5.7L349.3,6.2L363.2,6.1L377.2,5L391.2,4.3L405.2,5.2L419.1,6L433.1,3.2L447.1,3.7L461,4.4L475,3.8L489,4.4L503,4.2L516.9,5.9L530.9,5.7L544.9,6L558.8,5.7L572.8,3.9L586.8,5.3L589.6,8L593,17.4L590.1,26.8L589.8,36.2L584.3,45.6L594.4,54.9L593,64.3L589.3,73.7L588,83.1L595.9,92.5L591.4,101.9L585.6,111.3L600,116.2L586,117.1L572.1,116.8L558.1,116.7L544.1,116.9L530.1,115.3L516.2,116.4L502.2,116.6L488.2,116.7L474.3,117.3L460.3,116.1L446.3,117L432.3,115.9L418.4,114.9L404.4,116.6L390.4,115.3L376.5,116.7L362.5,115.4L348.5,116.8L334.6,115.9L320.6,117L306.6,115.6L292.6,115.4L278.7,116.7L264.7,115L250.7,116.5L236.8,115.9L222.8,116.4L208.8,115.2L194.8,117.4L180.9,116.7L166.9,116.1L152.9,115.3L139,115.9L125,116.2L111,116.2L97,115.8L83.1,116.4L69.1,115.1L55.1,114.9L41.2,115.2L27.2,115.3L13.2,117.2L1,112L13.6,102.6L12,93.2L7.6,83.8L8.7,74.4L4.5,65.1L6.3,55.7L6,46.3L8,36.9L18,27.5L12,18.1L7.7,8.7Z"/></svg>