<svg xmlns="http://www.w3.org/2000/svg" viewBox="0 0 600 120" preserveAspectRatio="none"><path fill="#fff" d="M0,5L12.9,5.4L25.8,4.7L38.6,5.5L51.5,4.2L64.4,4.1L77.3,4.1L90.2,5.6L103.1,5.8L115.9,5.2L128.8,4.9L141.7,4.4L154.6,5.3L167.5,5.3L180.4,5L193.2,4.5L206.1,5.7L219,5.2L231.9,4.9L244.8,4.5L257.6,5.5L270.5,4.7L283.4,5.8L296.3,4.6L309.2,5.5L322.1,5.3L334.9,4.3L347.8,4.6L360.7,4.2L373.6,5.2L386.5,4.6L399.4,4.2L412.2,5.6L425.1,4.8L438,4.1L450.9,4.9L463.8,4.5L476.6,4.9L489.5,5.6L502.4,5.6L515.3,5.9L528.2,5.6L541.1,5.1L553.9,4.3L566.8,4.7L579.7,4.1L592.6,5.4L597.8,8L592.9,17.8L587.2,27.6L589.6,37.4L588.5,47.2L588.7,57L596,66.8L592.1,76.5L590.2,86.3L588.2,96.1L597.6,105.9L600,115.3L587.1,115.5L574.2,115.6L561.4,116.2L548.5,115L535.6,115L522.7,115.9L509.8,115.3L496.9,116.5L484.1,114.9L471.2,114.6L458.3,116.3L445.4,114.6L432.5,116.6L419.6,117L406.8,114.4L393.9,114.9L381,116L368.1,115.1L355.2,116.8L342.4,116.6L329.5,116.6L316.6,115.9L303.7,114.7L290.8,116L277.9,116L265.1,115.3L252.2,114.7L239.3,116.4L226.4,114.3L213.5,115.9L200.6,116.7L187.8,114.4L174.9,116.5L162,114.3L149.1,114.4L136.2,116.2L123.4,116.7L110.5,116.6L97.6,115L84.7,115.9L71.8,116.2L58.9,115.9L46.1,115.5L33.2,116.8L20.3,115.2L7.4,116.5L7.4,112L7.4,102.2L10.8,92.4L5.9,82.6L4,72.8L8,63L2.9,53.2L11.3,43.5L11.3,33.7L12.8,23.9L13.3,14.1Z"/></svg>