<svg xmlns="http://www.w3.org/2000/svg" viewBox="0 0 600 120" preserveAspectRatio="none"><path fill="#fff" d="M0,4.3L13,3.4L25.9,4.4L38.9,3.6L51.8,3.4L64.8,3.5L77.8,4.1L90.7,5.8L103.7,4.3L116.6,3.4L129.6,5.5L142.6,3.9L155.5,4.4L168.5,3.3L181.4,3.3L194.4,4.4L207.3,4.2L220.3,5.1L233.3,5.1L246.2,3.6L259.2,3.7L272.1,5.4L285.1,5L298.1,3.4L311,4.2L324,4.4L336.9,5.3L349.9,4.2L362.9,3.2L375.8,4.7L388.8,5L401.7,3.4L414.7,5.2L427.7,5.1L440.6,4.6L453.6,3.5L466.5,4.4L479.5,5.3L492.5,4.2L505.4,4.4L518.4,3.5L531.3,4.3L544.3,4L557.3,5.4L570.2,5.1L583.2,4L596.1,4.4L594.9,8L599,17.6L599,27.1L596.9,36.7L583.9,46.3L599,55.8L591.3,65.4L595.7,75L590.7,84.6L587.7,94.1L588.3,103.7L600,115.4L587,114.1L574.1,113.6L561.1,114.7L548.2,113.8L535.2,114.2L522.2,113.7L509.3,115L496.3,115L483.4,114.5L470.4,115.6L457.4,114.6L444.5,113.7L431.5,115L418.6,115L405.6,115L392.7,114.1L379.7,115.1L366.7,114.4L353.8,113.8L340.8,114.5L327.9,113.7L314.9,115.2L301.9,115.2L289,114.2L276,115.6L263.1,113.2L250.1,114.7L237.1,113.6L224.2,114.7L211.2,113.6L198.3,115.2L185.3,116.1L172.3,115.7L159.4,114.1L146.4,114.6L133.5,114.3L120.5,114.4L107.5,114.1L94.6,114.7L81.6,114L68.7,114.3L55.7,115.1L42.7,115.2L29.8,113.8L16.8,113.8L3.9,114.4L8.6,112L1.9,102.4L8.9,92.9L8.7,83.3L5.2,73.7L4.2,64.2L6.5,54.6L9,45L12,35.4L4.8,25.9L18,16.3Z"/></svg>