<svg xmlns="http://www.w3.org/2000/svg" viewBox="0 0 600 120" preserveAspectRatio="none"><path fill="#fff" d="M0,4.7L13.8,4.7L27.6,5.3L41.4,5.3L55.2,3.2L69,5.6L82.8,5L96.6,5.2L110.4,4.8L124.2,4.4L138,5.8L151.8,3.9L165.6,4.6L179.4,5.5L193.2,4.4L207,5.7L220.8,3.9L234.6,4.2L248.4,2.5L262.2,5.9L276,3.9L289.8,4.6L303.6,5.5L317.4,5.1L331.2,4.7L345,3.9L358.8,7.3L372.6,5.5L386.4,5.5L400.2,3.4L414,4.9L427.8,5L441.6,5.8L455.4,5.6L469.2,5.6L483,4.6L496.8,3.9L510.6,5.1L524.3,5.3L538.1,4.3L551.9,5.8L565.7,5.5L579.5,4.6L593.3,5.6L585.5,8L591.6,17.6L595.3,27.2L599,36.8L594,46.4L585.5,56L599,65.6L593.1,75.2L592.5,84.8L594.1,94.4L592.5,104L600,115.5L586.2,114.9L572.4,116.4L558.6,114.2L544.8,116.3L531,115.9L517.2,116.1L503.4,115.7L489.6,115.3L475.8,115.7L462,114.5L448.2,115.1L434.4,116.9L420.6,117L406.8,116L393,116.8L379.2,115L365.4,115.5L351.6,115.6L337.8,114.2L324,114.9L310.2,116.3L296.4,116.3L282.6,115.7L268.8,116.1L255,114.8L241.2,115.9L227.4,114.4L213.6,116.5L199.8,115.7L186,116.2L172.2,114.8L158.4,114.8L144.6,114.1L130.8,117L117,114.7L103.2,115.2L89.4,115.9L75.7,114.7L61.9,116.6L48.1,115.5L34.3,116.9L20.5,114.4L6.7,115.5L10.4,112L9.7,102.4L9.7,92.8L13.2,83.2L4.9,73.6L1.3,64L8.5,54.4L13.4,44.8L1.3,35.2L1,25.6L10.4,16Z"/></svg>