<svg xmlns="http://www.w3.org/2000/svg" viewBox="0 0 600 120" preserveAspectRatio="none"><path fill="#fff" d="M0,5.1L12.6,4.6L25.3,4L37.9,5.5L50.6,5.2L63.2,3.6L75.8,6.2L88.5,5.9L101.1,5.2L113.7,5.8L126.4,4.8L139,4.2L151.7,6L164.3,5.9L176.9,5.3L189.6,5.8L202.2,3.8L214.9,5.4L227.5,3.7L240.1,5L252.8,4.1L265.4,4.2L278,5.1L290.7,4.3L303.3,4.3L316,5.1L328.6,4L341.2,4.2L353.9,5.5L366.5,5.3L379.2,4.3L391.8,5.9L404.4,5.1L417.1,4.8L429.7,4.2L442.3,4.5L455,4.4L467.6,5.2L480.3,5.4L492.9,5.4L505.5,5.8L518.2,6L530.8,6.8L543.5,5.1L556.1,4.2L568.7,4.4L581.4,3.9L594,4L591.5,8L591.2,17.6L596.4,27.2L591.7,36.7L596.8,46.3L596.9,55.9L585.4,65.5L590.9,75L591.6,84.6L596.9,94.2L595.9,103.8L600,116.4L587.4,116.7L574.7,116.6L562.1,115.8L549.4,115.9L536.8,116.4L524.2,116.2L511.5,116.4L498.9,115.8L486.3,115.8L473.6,115.8L461,116.5L448.3,116L435.7,115.1L423.1,116.2L410.4,116L397.8,116.6L385.1,116.6L372.5,115.3L359.9,116.5L347.2,116.4L334.6,116.2L322,115.3L309.3,116.5L296.7,116.4L284,115.9L271.4,115.6L258.8,115.3L246.1,116.7L233.5,115.7L220.8,115.2L208.2,116.5L195.6,116.4L182.9,115.9L170.3,115.3L157.7,116.3L145,116.7L132.4,116.6L119.7,116.1L107.1,115.7L94.5,116.6L81.8,116.7L69.2,115.3L56.5,115.4L43.9,115.3L31.3,116.6L18.6,116.5L6,115.7L3.3,112L8.4,102.4L6.8,92.8L1,83.3L10.5,73.7L16.6,64.1L6.9,54.5L5.4,45L6.5,35.4L10.9,25.8L1.7,16.2Z"/></svg>